<svg width="595" height="351" viewBox="0 0 595 351" fill="none" xmlns="http://www.w3.org/2000/svg">
<path d="M13.0345 280.217H6.72815V261.607H13.1618C15.0095 261.607 16.5966 261.979 17.9234 262.725C19.2561 263.464 20.2799 264.527 20.9948 265.914C21.7096 267.301 22.067 268.961 22.067 270.894C22.067 272.832 21.7066 274.498 20.9857 275.892C20.2708 277.285 19.2379 278.354 17.887 279.099C16.5421 279.845 14.9246 280.217 13.0345 280.217ZM10.0994 277.3H12.871C14.1674 277.3 15.2487 277.064 16.115 276.591C16.9813 276.113 17.6326 275.401 18.0687 274.456C18.5049 273.505 18.723 272.317 18.723 270.894C18.723 269.47 18.5049 268.289 18.0687 267.35C17.6326 266.405 16.9874 265.699 16.1332 265.233C15.2851 264.76 14.231 264.524 12.9709 264.524H10.0994V277.3ZM53.6704 270.912C53.6704 272.917 53.2948 274.635 52.5436 276.064C51.7985 277.488 50.7807 278.578 49.4904 279.336C48.2061 280.093 46.7491 280.472 45.1195 280.472C43.4899 280.472 42.0299 280.093 40.7396 279.336C39.4553 278.572 38.4375 277.479 37.6863 276.055C36.9412 274.626 36.5686 272.911 36.5686 270.912C36.5686 268.907 36.9412 267.192 37.6863 265.769C38.4375 264.339 39.4553 263.246 40.7396 262.488C42.0299 261.731 43.4899 261.352 45.1195 261.352C46.7491 261.352 48.2061 261.731 49.4904 262.488C50.7807 263.246 51.7985 264.339 52.5436 265.769C53.2948 267.192 53.6704 268.907 53.6704 270.912ZM50.2809 270.912C50.2809 269.5 50.0598 268.31 49.6176 267.341C49.1814 266.365 48.5756 265.629 47.8002 265.133C47.0247 264.63 46.1312 264.378 45.1195 264.378C44.1078 264.378 43.2143 264.63 42.4388 265.133C41.6634 265.629 41.0546 266.365 40.6123 267.341C40.1762 268.31 39.9581 269.5 39.9581 270.912C39.9581 272.324 40.1762 273.517 40.6123 274.492C41.0546 275.462 41.6634 276.198 42.4388 276.7C43.2143 277.197 44.1078 277.446 45.1195 277.446C46.1312 277.446 47.0247 277.197 47.8002 276.7C48.5756 276.198 49.1814 275.462 49.6176 274.492C50.0598 273.517 50.2809 272.324 50.2809 270.912ZM83.922 261.607V280.217H80.9233L72.1544 267.541H71.9999V280.217H68.6286V261.607H71.6455L80.4054 274.292H80.5689V261.607H83.922ZM101.756 280.217H98.1578L104.71 261.607H108.871L115.432 280.217H111.834L106.863 265.423H106.718L101.756 280.217ZM101.874 272.92H111.688V275.628H101.874V272.92ZM126.588 264.433V261.607H141.436V264.433H135.684V280.217H132.34V264.433H126.588ZM156.069 280.217V261.607H168.173V264.433H159.44V269.485H167.546V272.311H159.44V277.391H168.246V280.217H156.069ZM200.684 264.433V261.607H215.532V264.433H209.78V280.217H206.436V264.433H200.684ZM230.165 280.217V261.607H233.537V269.485H242.16V261.607H245.541V280.217H242.16V272.311H233.537V280.217H230.165ZM260.978 280.217V261.607H273.082V264.433H264.349V269.485H272.455V272.311H264.349V277.391H273.155V280.217H260.978ZM306.411 280.217V261.607H318.333V264.433H309.782V269.485H317.515V272.311H309.782V280.217H306.411ZM349.804 270.912C349.804 272.917 349.429 274.635 348.678 276.064C347.932 277.488 346.915 278.578 345.624 279.336C344.34 280.093 342.883 280.472 341.253 280.472C339.624 280.472 338.164 280.093 336.874 279.336C335.589 278.572 334.571 277.479 333.82 276.055C333.075 274.626 332.703 272.911 332.703 270.912C332.703 268.907 333.075 267.192 333.82 265.769C334.571 264.339 335.589 263.246 336.874 262.488C338.164 261.731 339.624 261.352 341.253 261.352C342.883 261.352 344.34 261.731 345.624 262.488C346.915 263.246 347.932 264.339 348.678 265.769C349.429 267.192 349.804 268.907 349.804 270.912ZM346.415 270.912C346.415 269.5 346.194 268.31 345.752 267.341C345.315 266.365 344.71 265.629 343.934 265.133C343.159 264.63 342.265 264.378 341.253 264.378C340.242 264.378 339.348 264.63 338.573 265.133C337.797 265.629 337.189 266.365 336.746 267.341C336.31 268.31 336.092 269.5 336.092 270.912C336.092 272.324 336.31 273.517 336.746 274.492C337.189 275.462 337.797 276.198 338.573 276.7C339.348 277.197 340.242 277.446 341.253 277.446C342.265 277.446 343.159 277.197 343.934 276.7C344.71 276.198 345.315 275.462 345.752 274.492C346.194 273.517 346.415 272.324 346.415 270.912ZM381.392 270.912C381.392 272.917 381.016 274.635 380.265 276.064C379.52 277.488 378.502 278.578 377.212 279.336C375.927 280.093 374.471 280.472 372.841 280.472C371.211 280.472 369.751 280.093 368.461 279.336C367.177 278.572 366.159 277.479 365.408 276.055C364.663 274.626 364.29 272.911 364.29 270.912C364.29 268.907 364.663 267.192 365.408 265.769C366.159 264.339 367.177 263.246 368.461 262.488C369.751 261.731 371.211 261.352 372.841 261.352C374.471 261.352 375.927 261.731 377.212 262.488C378.502 263.246 379.52 264.339 380.265 265.769C381.016 267.192 381.392 268.907 381.392 270.912ZM378.002 270.912C378.002 269.5 377.781 268.31 377.339 267.341C376.903 266.365 376.297 265.629 375.522 265.133C374.746 264.63 373.853 264.378 372.841 264.378C371.829 264.378 370.936 264.63 370.16 265.133C369.385 265.629 368.776 266.365 368.334 267.341C367.898 268.31 367.679 269.5 367.679 270.912C367.679 272.324 367.898 273.517 368.334 274.492C368.776 275.462 369.385 276.198 370.16 276.7C370.936 277.197 371.829 277.446 372.841 277.446C373.853 277.446 374.746 277.197 375.522 276.7C376.297 276.198 376.903 275.462 377.339 274.492C377.781 273.517 378.002 272.324 378.002 270.912ZM402.656 280.217H396.35V261.607H402.784C404.631 261.607 406.219 261.979 407.545 262.725C408.878 263.464 409.902 264.527 410.617 265.914C411.331 267.301 411.689 268.961 411.689 270.894C411.689 272.832 411.328 274.498 410.608 275.892C409.893 277.285 408.86 278.354 407.509 279.099C406.164 279.845 404.546 280.217 402.656 280.217ZM399.721 277.3H402.493C403.789 277.3 404.871 277.064 405.737 276.591C406.603 276.113 407.254 275.401 407.691 274.456C408.127 273.505 408.345 272.317 408.345 270.894C408.345 269.47 408.127 268.289 407.691 267.35C407.254 266.405 406.609 265.699 405.755 265.233C404.907 264.76 403.853 264.524 402.593 264.524H399.721V277.3ZM443.963 264.433V261.607H458.812V264.433H453.059V280.217H449.715V264.433H443.963ZM489.25 270.912C489.25 272.917 488.874 274.635 488.123 276.064C487.378 277.488 486.36 278.578 485.069 279.336C483.785 280.093 482.328 280.472 480.699 280.472C479.069 280.472 477.609 280.093 476.319 279.336C475.034 278.572 474.017 277.479 473.265 276.055C472.52 274.626 472.148 272.911 472.148 270.912C472.148 268.907 472.52 267.192 473.265 265.769C474.017 264.339 475.034 263.246 476.319 262.488C477.609 261.731 479.069 261.352 480.699 261.352C482.328 261.352 483.785 261.731 485.069 262.488C486.36 263.246 487.378 264.339 488.123 265.769C488.874 267.192 489.25 268.907 489.25 270.912ZM485.86 270.912C485.86 269.5 485.639 268.31 485.197 267.341C484.761 266.365 484.155 265.629 483.379 265.133C482.604 264.63 481.71 264.378 480.699 264.378C479.687 264.378 478.793 264.63 478.018 265.133C477.243 265.629 476.634 266.365 476.191 267.341C475.755 268.31 475.537 269.5 475.537 270.912C475.537 272.324 475.755 273.517 476.191 274.492C476.634 275.462 477.243 276.198 478.018 276.7C478.793 277.197 479.687 277.446 480.699 277.446C481.71 277.446 482.604 277.197 483.379 276.7C484.155 276.198 484.761 275.462 485.197 274.492C485.639 273.517 485.86 272.324 485.86 270.912ZM510.514 280.217H504.208V261.607H510.641C512.489 261.607 514.076 261.979 515.403 262.725C516.736 263.464 517.76 264.527 518.474 265.914C519.189 267.301 519.547 268.961 519.547 270.894C519.547 272.832 519.186 274.498 518.465 275.892C517.75 277.285 516.718 278.354 515.367 279.099C514.022 279.845 512.404 280.217 510.514 280.217ZM507.579 277.3H510.351C511.647 277.3 512.728 277.064 513.595 276.591C514.461 276.113 515.112 275.401 515.548 274.456C515.985 273.505 516.203 272.317 516.203 270.894C516.203 269.47 515.985 268.289 515.548 267.35C515.112 266.405 514.467 265.699 513.613 265.233C512.765 264.76 511.711 264.524 510.451 264.524H507.579V277.3ZM535.911 280.217H532.313L538.864 261.607H543.026L549.587 280.217H545.989L541.018 265.423H540.873L535.911 280.217ZM536.029 272.92H545.843V275.628H536.029V272.92ZM560.638 261.607H564.445L568.998 269.84H569.18L573.732 261.607H577.54L570.77 273.275V280.217H567.408V273.275L560.638 261.607Z" fill="black"/>
<path d="M10.9608 95.3215V25.5033H57.188V37.6737H25.7221V54.3101H54.1199V66.4806H25.7221V95.3215H10.9608ZM85.2915 96.1632C80.933 96.1632 77.1638 95.2373 73.9839 93.3854C70.8226 91.5149 68.3815 88.9148 66.6606 85.5851C64.9396 82.2368 64.0792 78.3554 64.0792 73.9408C64.0792 69.4888 64.9396 65.598 66.6606 62.2684C68.3815 58.9201 70.8226 56.32 73.9839 54.4681C77.1638 52.5976 80.933 51.6623 85.2915 51.6623C89.6499 51.6623 93.4098 52.5976 96.571 54.4681C99.751 56.32 102.201 58.9201 103.922 62.2684C105.643 65.598 106.504 69.4888 106.504 73.9408C106.504 78.3554 105.643 82.2368 103.922 85.5851C102.201 88.9148 99.751 91.5149 96.571 93.3854C93.4098 95.2373 89.6499 96.1632 85.2915 96.1632ZM85.3476 86.9039C87.3304 86.9039 88.9859 86.3427 90.314 85.2204C91.6421 84.0793 92.6428 82.5267 93.3162 80.5626C94.0083 78.5985 94.3544 76.3632 94.3544 73.8566C94.3544 71.3501 94.0083 69.1147 93.3162 67.1506C92.6428 65.1865 91.6421 63.6339 90.314 62.4929C88.9859 61.3518 87.3304 60.7813 85.3476 60.7813C83.3461 60.7813 81.6626 61.3518 80.297 62.4929C78.9502 63.6339 77.9308 65.1865 77.2387 67.1506C76.5652 69.1147 76.2285 71.3501 76.2285 73.8566C76.2285 76.3632 76.5652 78.5985 77.2387 80.5626C77.9308 82.5267 78.9502 84.0793 80.297 85.2204C81.6626 86.3427 83.3461 86.9039 85.3476 86.9039ZM133.749 96.1632C129.39 96.1632 125.621 95.2373 122.441 93.3854C119.28 91.5149 116.839 88.9148 115.118 85.5851C113.397 82.2368 112.536 78.3554 112.536 73.9408C112.536 69.4888 113.397 65.598 115.118 62.2684C116.839 58.9201 119.28 56.32 122.441 54.4681C125.621 52.5976 129.39 51.6623 133.749 51.6623C138.107 51.6623 141.867 52.5976 145.028 54.4681C148.208 56.32 150.659 58.9201 152.38 62.2684C154.101 65.598 154.961 69.4888 154.961 73.9408C154.961 78.3554 154.101 82.2368 152.38 85.5851C150.659 88.9148 148.208 91.5149 145.028 93.3854C141.867 95.2373 138.107 96.1632 133.749 96.1632ZM133.805 86.9039C135.788 86.9039 137.443 86.3427 138.771 85.2204C140.099 84.0793 141.1 82.5267 141.773 80.5626C142.466 78.5985 142.812 76.3632 142.812 73.8566C142.812 71.3501 142.466 69.1147 141.773 67.1506C141.1 65.1865 140.099 63.6339 138.771 62.4929C137.443 61.3518 135.788 60.7813 133.805 60.7813C131.803 60.7813 130.12 61.3518 128.754 62.4929C127.407 63.6339 126.388 65.1865 125.696 67.1506C125.022 69.1147 124.686 71.3501 124.686 73.8566C124.686 76.3632 125.022 78.5985 125.696 80.5626C126.388 82.5267 127.407 84.0793 128.754 85.2204C130.12 86.3427 131.803 86.9039 133.805 86.9039ZM35.7108 211.321H10.9608V141.503H35.9153C42.938 141.503 48.9835 142.901 54.0517 145.696C59.1199 148.469 63.0176 152.458 65.7449 157.662C68.4949 162.867 69.8699 169.094 69.8699 176.344C69.8699 183.617 68.4949 189.867 65.7449 195.094C63.0176 200.321 59.0971 204.333 53.9835 207.128C48.8926 209.924 42.8017 211.321 35.7108 211.321ZM25.7221 198.674H35.0971C39.4608 198.674 43.1312 197.901 46.1085 196.356C49.1085 194.787 51.3585 192.367 52.8585 189.094C54.3812 185.799 55.1426 181.549 55.1426 176.344C55.1426 171.185 54.3812 166.969 52.8585 163.696C51.3585 160.424 49.1199 158.015 46.1426 156.469C43.1653 154.924 39.4949 154.151 35.1312 154.151H25.7221V198.674ZM98.979 212.163C94.6205 212.163 90.8513 211.237 87.6714 209.385C84.5101 207.515 82.069 204.915 80.3481 201.585C78.6271 198.237 77.7667 194.355 77.7667 189.941C77.7667 185.489 78.6271 181.598 80.3481 178.268C82.069 174.92 84.5101 172.32 87.6714 170.468C90.8513 168.598 94.6205 167.662 98.979 167.662C103.337 167.662 107.097 168.598 110.259 170.468C113.439 172.32 115.889 174.92 117.61 178.268C119.331 181.598 120.191 185.489 120.191 189.941C120.191 194.355 119.331 198.237 117.61 201.585C115.889 204.915 113.439 207.515 110.259 209.385C107.097 211.237 103.337 212.163 98.979 212.163ZM99.0351 202.904C101.018 202.904 102.673 202.343 104.001 201.22C105.33 200.079 106.33 198.527 107.004 196.563C107.696 194.599 108.042 192.363 108.042 189.857C108.042 187.35 107.696 185.115 107.004 183.151C106.33 181.187 105.33 179.634 104.001 178.493C102.673 177.352 101.018 176.781 99.0351 176.781C97.0336 176.781 95.3501 177.352 93.9845 178.493C92.6377 179.634 91.6183 181.187 90.9262 183.151C90.2527 185.115 89.916 187.35 89.916 189.857C89.916 192.363 90.2527 194.599 90.9262 196.563C91.6183 198.527 92.6377 200.079 93.9845 201.22C95.3501 202.343 97.0336 202.904 99.0351 202.904ZM147.436 212.163C143.078 212.163 139.309 211.237 136.129 209.385C132.967 207.515 130.526 204.915 128.805 201.585C127.084 198.237 126.224 194.355 126.224 189.941C126.224 185.489 127.084 181.598 128.805 178.268C130.526 174.92 132.967 172.32 136.129 170.468C139.309 168.598 143.078 167.662 147.436 167.662C151.795 167.662 155.554 168.598 158.716 170.468C161.896 172.32 164.346 174.92 166.067 178.268C167.788 181.598 168.649 185.489 168.649 189.941C168.649 194.355 167.788 198.237 166.067 201.585C164.346 204.915 161.896 207.515 158.716 209.385C155.554 211.237 151.795 212.163 147.436 212.163ZM147.492 202.904C149.475 202.904 151.131 202.343 152.459 201.22C153.787 200.079 154.788 198.527 155.461 196.563C156.153 194.599 156.499 192.363 156.499 189.857C156.499 187.35 156.153 185.115 155.461 183.151C154.788 181.187 153.787 179.634 152.459 178.493C151.131 177.352 149.475 176.781 147.492 176.781C145.491 176.781 143.807 177.352 142.442 178.493C141.095 179.634 140.075 181.187 139.383 183.151C138.71 185.115 138.373 187.35 138.373 189.857C138.373 192.363 138.71 194.599 139.383 196.563C140.075 198.527 141.095 200.079 142.442 201.22C143.807 202.343 145.491 202.904 147.492 202.904Z" fill="black"/>
<rect x="2.89258" y="2.89569" width="229.605" height="234.589" stroke="#FFD600" stroke-width="4"/>
</svg>
